<?xml version="1.0" standalone="no"?><!DOCTYPE svg PUBLIC "-//W3C//DTD SVG 1.1//EN" "http://www.w3.org/Graphics/SVG/1.1/DTD/svg11.dtd"><svg t="1608802810480" class="icon" viewBox="0 0 1024 1024" version="1.1" xmlns="http://www.w3.org/2000/svg" p-id="1170" xmlns:xlink="http://www.w3.org/1999/xlink" width="200" height="200"><defs><style type="text/css"></style></defs><path d="M960 558.933333c-25.6-25.6-25.6-68.266667 0-93.866666l23.466667-25.6c6.4-8.533333 10.666667-19.2 8.533333-27.733334-12.8-59.733333-36.266667-115.2-68.266667-166.4-6.4-8.533333-14.933333-14.933333-25.6-14.933333h-34.133333c-36.266667 0-66.133333-29.866667-66.133333-66.133333V130.133333c0-10.666667-6.4-21.333333-14.933334-25.6-51.2-34.133333-106.666667-55.466667-166.4-68.266666-10.666667-2.133333-21.333333 0-27.733333 8.533333l-29.866667 19.2C533.333333 89.6 490.666667 89.6 465.066667 64l-25.6-23.466667c-8.533333-6.4-19.2-10.666667-27.733334-8.533333-59.733333 12.8-115.2 36.266667-166.4 68.266667-10.666667 6.4-14.933333 17.066667-14.933333 27.733333v34.133333c0 36.266667-29.866667 66.133333-66.133333 66.133334H130.133333c-10.666667 0-21.333333 6.4-25.6 14.933333-21.333333 32-59.733333 98.133333-68.266666 168.533333-2.133333 10.666667 2.133333 19.2 8.533333 27.733334l19.2 25.6C89.6 490.666667 89.6 533.333333 64 558.933333l-23.466667 25.6c-6.4 6.4-10.666667 17.066667-8.533333 27.733334 8.533333 55.466667 32 110.933333 68.266667 168.533333 6.4 6.4 17.066667 12.8 27.733333 12.8h34.133333c36.266667 0 66.133333 29.866667 66.133334 66.133333v34.133334c0 10.666667 6.4 21.333333 14.933333 25.6 51.2 34.133333 106.666667 55.466667 166.4 68.266666 10.666667 2.133333 21.333333 0 27.733333-8.533333l25.6-23.466667c25.6-25.6 68.266667-25.6 93.866667 0l25.6 23.466667c6.4 6.4 14.933333 8.533333 21.333333 8.533333h6.4c59.733333-12.8 115.2-36.266667 166.4-68.266666 8.533333-6.4 14.933333-14.933333 14.933334-25.6v-34.133334c0-36.266667 29.866667-66.133333 66.133333-66.133333h34.133333c10.666667 0 21.333333-6.4 25.6-14.933333 34.133333-51.2 55.466667-106.666667 68.266667-166.4 2.133333-10.666667 0-21.333333-8.533333-27.733334l-17.066667-25.6z m-46.933333 44.8l12.8 12.8c-10.666667 40.533333-25.6 78.933333-46.933334 113.066667h-17.066666c-70.4 2.133333-128 59.733333-130.133334 130.133333v17.066667c-36.266667 21.333333-74.666667 36.266667-113.066666 46.933333l-12.8-12.8c-51.2-49.066667-132.266667-49.066667-183.466667 0l-12.8 12.8c-40.533333-10.666667-78.933333-25.6-113.066667-46.933333v-17.066667c-2.133333-70.4-59.733333-128-130.133333-130.133333H149.333333c-23.466667-38.4-40.533333-76.8-46.933333-113.066667l12.8-12.8c49.066667-51.2 49.066667-132.266667 0-183.466666l-12.8-12.8c8.533333-34.133333 23.466667-74.666667 46.933333-113.066667h17.066667c70.4-2.133333 128-59.733333 130.133333-130.133333v-17.066667c36.266667-21.333333 74.666667-36.266667 113.066667-46.933333l12.8 12.8c51.2 49.066667 132.266667 49.066667 183.466667 0l12.8-12.8c40.533333 10.666667 78.933333 25.6 113.066666 46.933333v17.066667c2.133333 70.4 59.733333 128 130.133334 130.133333h17.066666c21.333333 36.266667 36.266667 74.666667 46.933334 113.066667l-12.8 12.8c-49.066667 51.2-49.066667 132.266667 0 183.466666z" fill="#212121" p-id="1171"></path><path d="M512 288c-123.733333 0-224 100.266667-224 224S388.266667 736 512 736 736 635.733333 736 512 635.733333 288 512 288z m0 384c-87.466667 0-160-72.533333-160-160s72.533333-160 160-160 160 72.533333 160 160-72.533333 160-160 160z" fill="#212121" p-id="1172"></path></svg>